<svg width="1200" height="630" viewBox="0 0 1200 630" fill="none" xmlns="http://www.w3.org/2000/svg">
<rect width="1200" height="630" fill="#737373"/>
<path d="M431 216C431 209.373 436.373 204 443 204H757C763.627 204 769 209.373 769 216V414C769 420.627 763.627 426 757 426H443C436.373 426 431 420.627 431 414V216Z" fill="#F43F5E"/>
<path d="M536.46 363.755L663.54 333.744" stroke="white" stroke-width="12" stroke-linecap="round"/>
<ellipse cx="559.5" cy="294" rx="15.5" ry="15" fill="white"/>
<ellipse cx="559.5" cy="294" rx="15.5" ry="15" fill="white"/>
<ellipse cx="559.5" cy="294" rx="15.5" ry="15" fill="white"/>
<ellipse cx="559.5" cy="294" rx="15.5" ry="15" fill="white"/>
<ellipse cx="640.5" cy="294" rx="15.5" ry="15" fill="white"/>
<ellipse cx="640.5" cy="294" rx="15.5" ry="15" fill="white"/>
<ellipse cx="640.5" cy="294" rx="15.5" ry="15" fill="white"/>
<ellipse cx="640.5" cy="294" rx="15.5" ry="15" fill="white"/>
</svg>
